<svg width="1160" height="256" viewBox="0 0 1160 256" fill="none" xmlns="http://www.w3.org/2000/svg">
<g filter="url(#filter0_d_2181_27244)">
<rect x="20" y="16" width="1120" height="216" rx="8" fill="url(#paint0_radial_2181_27244)"/>
</g>
<g filter="url(#filter1_bi_2181_27244)">
<path d="M63 118.5L20 121V224C20 228.418 23.5817 232 28 232H1132C1136.42 232 1140 228.418 1140 224V125L1110.82 110.678L1076.5 92L1035.58 85L1005 88.5L974.594 75L951.75 56.75L928 50.25L894.437 62L870 78.5L844 85L810.477 101.757L772 90L732.232 101.757L685.5 96L649 82.5L622 74L580.5 79H554.5L536.5 89H513.5L493 97.5H469L439 107.5L401 104L362.5 111.5L337.5 107.5L307.5 104L279.5 97.5L255.5 85.5L232 89L196 92L170 100L141.5 108H108L63 118.5Z" fill="url(#paint1_linear_2181_27244)" fill-opacity="0.2"/>
</g>
<path d="M20 121L63 118.5L108 108H141.5L170 100L196 92L232 89L255.5 85.5L279.5 97.5L307.5 104L337.5 107.5L362.5 111.5L401 104L439 107.5L469 97.5H493L513.5 89H536.5L554.5 79H580.5L622 74L649 82.5L685.5 96L732.232 101.757L772 90L810.477 101.757L844 85L870 78.5L894.437 62L928 50.25L951.75 56.75L974.594 75L1005 88.5L1035.58 85L1076.5 92L1110.82 110.678L1140 125" stroke="url(#paint2_linear_2181_27244)" stroke-width="2" stroke-linecap="round" stroke-linejoin="round"/>
<circle cx="232" cy="90" r="7" fill="#FA4A29" stroke="white" stroke-width="2"/>
<circle cx="580" cy="79" r="7" fill="#FA4A29" stroke="white" stroke-width="2"/>
<circle cx="928" cy="50" r="7" fill="#FA4A29" stroke="white" stroke-width="2"/>
<path d="M174.498 156V152.24H180.178V135.52H175.498V132.64C176.752 132.4 177.845 132.12 178.778 131.8C179.712 131.453 180.578 131.04 181.378 130.56H184.818V152.24H189.818V156H174.498ZM196.766 156.48C195.939 156.48 195.233 156.187 194.646 155.6C194.059 155.013 193.766 154.267 193.766 153.36C193.766 152.453 194.059 151.707 194.646 151.12C195.233 150.533 195.939 150.24 196.766 150.24C197.619 150.24 198.326 150.533 198.886 151.12C199.446 151.707 199.726 152.453 199.726 153.36C199.726 154.267 199.446 155.013 198.886 155.6C198.326 156.187 197.619 156.48 196.766 156.48ZM206.742 145.88H213.422V140.12C213.422 139.373 213.448 138.493 213.502 137.48C213.555 136.467 213.595 135.587 213.622 134.84H213.462C213.142 135.507 212.808 136.16 212.462 136.8C212.115 137.44 211.755 138.107 211.382 138.8L206.742 145.88ZM213.422 156V149.44H202.182V146.32L212.262 130.56H217.742V145.88H220.942V149.44H217.742V156H213.422ZM242.137 156.48C239.951 156.48 237.964 155.96 236.177 154.92C234.391 153.88 232.964 152.36 231.897 150.36C230.857 148.333 230.337 145.88 230.337 143C230.337 140.147 230.871 137.707 231.937 135.68C233.031 133.627 234.484 132.067 236.297 131C238.111 129.907 240.111 129.36 242.297 129.36C243.951 129.36 245.417 129.693 246.697 130.36C247.977 131.027 249.031 131.8 249.857 132.68L247.377 135.68C246.711 134.987 245.964 134.44 245.137 134.04C244.337 133.613 243.431 133.4 242.417 133.4C241.004 133.4 239.737 133.787 238.617 134.56C237.524 135.307 236.657 136.387 236.017 137.8C235.404 139.213 235.097 140.907 235.097 142.88C235.097 145.867 235.751 148.213 237.057 149.92C238.364 151.6 240.111 152.44 242.297 152.44C243.471 152.44 244.511 152.2 245.417 151.72C246.324 151.213 247.151 150.56 247.897 149.76L250.377 152.68C249.311 153.907 248.084 154.853 246.697 155.52C245.337 156.16 243.817 156.48 242.137 156.48ZM253.544 156V136.36H257.344L257.664 139.84H257.824C258.518 138.56 259.358 137.587 260.344 136.92C261.331 136.227 262.344 135.88 263.384 135.88C264.318 135.88 265.064 136.013 265.624 136.28L264.824 140.28C264.478 140.173 264.158 140.093 263.864 140.04C263.571 139.987 263.211 139.96 262.784 139.96C262.011 139.96 261.198 140.267 260.344 140.88C259.491 141.467 258.758 142.507 258.144 144V156H253.544ZM280.474 152.04V144.48H273.314V141.12H280.474V133.56H283.954V141.12H291.114V144.48H283.954V152.04H280.474Z" fill="white"/>
<path d="M164.591 191V177.88H168.691C169.584 177.88 170.378 178 171.071 178.24C171.764 178.467 172.304 178.853 172.691 179.4C173.091 179.933 173.291 180.653 173.291 181.56C173.291 182.573 173.024 183.393 172.491 184.02C171.958 184.633 171.238 185.053 170.331 185.28L173.671 191H171.791L168.631 185.46H166.251V191H164.591ZM166.251 184.1H168.451C169.478 184.1 170.264 183.893 170.811 183.48C171.358 183.053 171.631 182.413 171.631 181.56C171.631 180.693 171.358 180.087 170.811 179.74C170.264 179.393 169.478 179.22 168.451 179.22H166.251V184.1ZM179.562 191.24C178.696 191.24 177.909 191.04 177.202 190.64C176.496 190.227 175.936 189.64 175.522 188.88C175.109 188.12 174.902 187.213 174.902 186.16C174.902 185.093 175.109 184.18 175.522 183.42C175.949 182.66 176.496 182.073 177.162 181.66C177.829 181.247 178.529 181.04 179.262 181.04C180.502 181.04 181.456 181.453 182.122 182.28C182.802 183.107 183.142 184.213 183.142 185.6C183.142 185.773 183.136 185.947 183.122 186.12C183.122 186.28 183.109 186.42 183.082 186.54H176.522C176.589 187.567 176.909 188.387 177.482 189C178.069 189.613 178.829 189.92 179.762 189.92C180.229 189.92 180.656 189.853 181.042 189.72C181.442 189.573 181.822 189.387 182.182 189.16L182.762 190.24C182.349 190.507 181.876 190.74 181.342 190.94C180.822 191.14 180.229 191.24 179.562 191.24ZM176.502 185.36H181.702C181.702 184.373 181.489 183.627 181.062 183.12C180.649 182.6 180.062 182.34 179.302 182.34C178.622 182.34 178.009 182.607 177.462 183.14C176.929 183.66 176.609 184.4 176.502 185.36ZM188.629 195.48C187.442 195.48 186.476 195.253 185.729 194.8C184.982 194.347 184.609 193.7 184.609 192.86C184.609 192.447 184.736 192.047 184.989 191.66C185.242 191.287 185.589 190.953 186.029 190.66V190.58C185.789 190.433 185.582 190.227 185.409 189.96C185.249 189.693 185.169 189.373 185.169 189C185.169 188.587 185.282 188.227 185.509 187.92C185.736 187.613 185.976 187.373 186.229 187.2V187.12C185.909 186.853 185.616 186.493 185.349 186.04C185.096 185.587 184.969 185.073 184.969 184.5C184.969 183.793 185.136 183.18 185.469 182.66C185.802 182.14 186.249 181.74 186.809 181.46C187.369 181.18 187.976 181.04 188.629 181.04C188.896 181.04 189.149 181.067 189.389 181.12C189.629 181.16 189.836 181.213 190.009 181.28H193.389V182.54H191.389C191.616 182.753 191.802 183.04 191.949 183.4C192.109 183.747 192.189 184.127 192.189 184.54C192.189 185.233 192.029 185.833 191.709 186.34C191.389 186.847 190.962 187.24 190.429 187.52C189.896 187.787 189.296 187.92 188.629 187.92C188.109 187.92 187.622 187.807 187.169 187.58C186.996 187.727 186.849 187.893 186.729 188.08C186.609 188.253 186.549 188.473 186.549 188.74C186.549 189.047 186.669 189.3 186.909 189.5C187.162 189.7 187.616 189.8 188.269 189.8H190.149C191.282 189.8 192.129 189.987 192.689 190.36C193.262 190.72 193.549 191.307 193.549 192.12C193.549 192.72 193.349 193.273 192.949 193.78C192.549 194.287 191.982 194.693 191.249 195C190.516 195.32 189.642 195.48 188.629 195.48ZM188.629 186.82C189.189 186.82 189.669 186.613 190.069 186.2C190.482 185.773 190.689 185.207 190.689 184.5C190.689 183.793 190.489 183.24 190.089 182.84C189.689 182.44 189.202 182.24 188.629 182.24C188.056 182.24 187.569 182.44 187.169 182.84C186.769 183.24 186.569 183.793 186.569 184.5C186.569 185.207 186.769 185.773 187.169 186.2C187.582 186.613 188.069 186.82 188.629 186.82ZM188.869 194.34C189.802 194.34 190.549 194.133 191.109 193.72C191.669 193.32 191.949 192.867 191.949 192.36C191.949 191.907 191.776 191.593 191.429 191.42C191.096 191.247 190.616 191.16 189.989 191.16H188.309C188.122 191.16 187.916 191.147 187.689 191.12C187.476 191.093 187.262 191.053 187.049 191C186.702 191.253 186.449 191.52 186.289 191.8C186.129 192.08 186.049 192.36 186.049 192.64C186.049 193.16 186.296 193.573 186.789 193.88C187.296 194.187 187.989 194.34 188.869 194.34ZM195.427 191V181.28H197.067V191H195.427ZM196.267 179.28C195.947 179.28 195.68 179.187 195.467 179C195.267 178.8 195.167 178.533 195.167 178.2C195.167 177.88 195.267 177.62 195.467 177.42C195.68 177.22 195.947 177.12 196.267 177.12C196.587 177.12 196.847 177.22 197.047 177.42C197.26 177.62 197.367 177.88 197.367 178.2C197.367 178.533 197.26 178.8 197.047 179C196.847 179.187 196.587 179.28 196.267 179.28ZM202.889 191.24C202.196 191.24 201.536 191.113 200.909 190.86C200.282 190.593 199.736 190.273 199.269 189.9L200.089 188.8C200.516 189.133 200.956 189.413 201.409 189.64C201.862 189.853 202.376 189.96 202.949 189.96C203.589 189.96 204.069 189.813 204.389 189.52C204.709 189.213 204.869 188.853 204.869 188.44C204.869 188.107 204.756 187.827 204.529 187.6C204.316 187.373 204.036 187.187 203.689 187.04C203.356 186.88 203.009 186.733 202.649 186.6C202.196 186.427 201.749 186.233 201.309 186.02C200.869 185.793 200.509 185.507 200.229 185.16C199.949 184.8 199.809 184.347 199.809 183.8C199.809 183.013 200.102 182.36 200.689 181.84C201.289 181.307 202.116 181.04 203.169 181.04C203.769 181.04 204.329 181.147 204.849 181.36C205.369 181.573 205.816 181.833 206.189 182.14L205.389 183.18C205.056 182.927 204.709 182.72 204.349 182.56C203.989 182.4 203.596 182.32 203.169 182.32C202.556 182.32 202.102 182.46 201.809 182.74C201.529 183.02 201.389 183.347 201.389 183.72C201.389 184.027 201.489 184.28 201.689 184.48C201.889 184.667 202.149 184.833 202.469 184.98C202.789 185.113 203.129 185.253 203.489 185.4C203.956 185.573 204.416 185.773 204.869 186C205.322 186.213 205.696 186.507 205.989 186.88C206.296 187.24 206.449 187.727 206.449 188.34C206.449 188.86 206.309 189.34 206.029 189.78C205.762 190.22 205.362 190.573 204.829 190.84C204.309 191.107 203.662 191.24 202.889 191.24ZM211.397 191.24C210.357 191.24 209.631 190.94 209.217 190.34C208.817 189.74 208.617 188.96 208.617 188V182.62H207.177V181.38L208.697 181.28L208.897 178.56H210.277V181.28H212.897V182.62H210.277V188.02C210.277 188.62 210.384 189.087 210.597 189.42C210.824 189.74 211.217 189.9 211.777 189.9C211.951 189.9 212.137 189.873 212.337 189.82C212.537 189.753 212.717 189.693 212.877 189.64L213.197 190.88C212.931 190.973 212.637 191.053 212.317 191.12C212.011 191.2 211.704 191.24 211.397 191.24ZM218.762 191.24C217.895 191.24 217.108 191.04 216.402 190.64C215.695 190.227 215.135 189.64 214.722 188.88C214.308 188.12 214.102 187.213 214.102 186.16C214.102 185.093 214.308 184.18 214.722 183.42C215.148 182.66 215.695 182.073 216.362 181.66C217.028 181.247 217.728 181.04 218.462 181.04C219.702 181.04 220.655 181.453 221.322 182.28C222.002 183.107 222.342 184.213 222.342 185.6C222.342 185.773 222.335 185.947 222.322 186.12C222.322 186.28 222.308 186.42 222.282 186.54H215.722C215.788 187.567 216.108 188.387 216.682 189C217.268 189.613 218.028 189.92 218.962 189.92C219.428 189.92 219.855 189.853 220.242 189.72C220.642 189.573 221.022 189.387 221.382 189.16L221.962 190.24C221.548 190.507 221.075 190.74 220.542 190.94C220.022 191.14 219.428 191.24 218.762 191.24ZM215.702 185.36H220.902C220.902 184.373 220.688 183.627 220.262 183.12C219.848 182.6 219.262 182.34 218.502 182.34C217.822 182.34 217.208 182.607 216.662 183.14C216.128 183.66 215.808 184.4 215.702 185.36ZM224.744 191V181.28H226.104L226.244 183.04H226.304C226.637 182.427 227.044 181.94 227.524 181.58C228.004 181.22 228.517 181.04 229.064 181.04C229.45 181.04 229.797 181.107 230.104 181.24L229.784 182.68C229.624 182.627 229.477 182.587 229.344 182.56C229.21 182.533 229.044 182.52 228.844 182.52C228.43 182.52 227.997 182.687 227.544 183.02C227.104 183.353 226.717 183.933 226.384 184.76V191H224.744ZM235.422 191.24C234.555 191.24 233.768 191.04 233.062 190.64C232.355 190.227 231.795 189.64 231.382 188.88C230.968 188.12 230.762 187.213 230.762 186.16C230.762 185.093 230.968 184.18 231.382 183.42C231.808 182.66 232.355 182.073 233.022 181.66C233.688 181.247 234.388 181.04 235.122 181.04C236.362 181.04 237.315 181.453 237.982 182.28C238.662 183.107 239.002 184.213 239.002 185.6C239.002 185.773 238.995 185.947 238.982 186.12C238.982 186.28 238.968 186.42 238.942 186.54H232.382C232.448 187.567 232.768 188.387 233.342 189C233.928 189.613 234.688 189.92 235.622 189.92C236.088 189.92 236.515 189.853 236.902 189.72C237.302 189.573 237.682 189.387 238.042 189.16L238.622 190.24C238.208 190.507 237.735 190.74 237.202 190.94C236.682 191.14 236.088 191.24 235.422 191.24ZM232.362 185.36H237.562C237.562 184.373 237.348 183.627 236.922 183.12C236.508 182.6 235.922 182.34 235.162 182.34C234.482 182.34 233.868 182.607 233.322 183.14C232.788 183.66 232.468 184.4 232.362 185.36ZM244.724 191.24C243.51 191.24 242.537 190.8 241.804 189.92C241.07 189.027 240.704 187.773 240.704 186.16C240.704 185.107 240.897 184.2 241.284 183.44C241.684 182.667 242.204 182.073 242.844 181.66C243.497 181.247 244.19 181.04 244.924 181.04C245.484 181.04 245.97 181.14 246.384 181.34C246.797 181.54 247.217 181.813 247.644 182.16L247.564 180.5V176.76H249.224V191H247.864L247.724 189.86H247.664C247.29 190.233 246.85 190.56 246.344 190.84C245.837 191.107 245.297 191.24 244.724 191.24ZM245.084 189.86C245.937 189.86 246.764 189.413 247.564 188.52V183.44C247.15 183.067 246.75 182.807 246.364 182.66C245.99 182.5 245.604 182.42 245.204 182.42C244.684 182.42 244.21 182.58 243.784 182.9C243.37 183.207 243.037 183.64 242.784 184.2C242.53 184.747 242.404 185.393 242.404 186.14C242.404 187.3 242.637 188.213 243.104 188.88C243.57 189.533 244.23 189.86 245.084 189.86ZM261.321 191.24C260.428 191.24 259.621 191.06 258.901 190.7C258.195 190.34 257.635 189.747 257.221 188.92C256.808 188.093 256.601 186.98 256.601 185.58V177.88H258.261V185.62C258.261 186.673 258.395 187.507 258.661 188.12C258.941 188.72 259.308 189.147 259.761 189.4C260.228 189.653 260.748 189.78 261.321 189.78C261.908 189.78 262.435 189.653 262.901 189.4C263.368 189.147 263.735 188.72 264.001 188.12C264.281 187.507 264.421 186.673 264.421 185.62V177.88H266.021V185.58C266.021 186.98 265.815 188.093 265.401 188.92C264.988 189.747 264.428 190.34 263.721 190.7C263.015 191.06 262.215 191.24 261.321 191.24ZM271.854 191.24C271.16 191.24 270.5 191.113 269.874 190.86C269.247 190.593 268.7 190.273 268.234 189.9L269.054 188.8C269.48 189.133 269.92 189.413 270.374 189.64C270.827 189.853 271.34 189.96 271.914 189.96C272.554 189.96 273.034 189.813 273.354 189.52C273.674 189.213 273.834 188.853 273.834 188.44C273.834 188.107 273.72 187.827 273.494 187.6C273.28 187.373 273 187.187 272.654 187.04C272.32 186.88 271.974 186.733 271.614 186.6C271.16 186.427 270.714 186.233 270.274 186.02C269.834 185.793 269.474 185.507 269.194 185.16C268.914 184.8 268.774 184.347 268.774 183.8C268.774 183.013 269.067 182.36 269.654 181.84C270.254 181.307 271.08 181.04 272.134 181.04C272.734 181.04 273.294 181.147 273.814 181.36C274.334 181.573 274.78 181.833 275.154 182.14L274.354 183.18C274.02 182.927 273.674 182.72 273.314 182.56C272.954 182.4 272.56 182.32 272.134 182.32C271.52 182.32 271.067 182.46 270.774 182.74C270.494 183.02 270.354 183.347 270.354 183.72C270.354 184.027 270.454 184.28 270.654 184.48C270.854 184.667 271.114 184.833 271.434 184.98C271.754 185.113 272.094 185.253 272.454 185.4C272.92 185.573 273.38 185.773 273.834 186C274.287 186.213 274.66 186.507 274.954 186.88C275.26 187.24 275.414 187.727 275.414 188.34C275.414 188.86 275.274 189.34 274.994 189.78C274.727 190.22 274.327 190.573 273.794 190.84C273.274 191.107 272.627 191.24 271.854 191.24ZM281.633 191.24C280.766 191.24 279.979 191.04 279.273 190.64C278.566 190.227 278.006 189.64 277.593 188.88C277.179 188.12 276.973 187.213 276.973 186.16C276.973 185.093 277.179 184.18 277.593 183.42C278.019 182.66 278.566 182.073 279.233 181.66C279.899 181.247 280.599 181.04 281.333 181.04C282.573 181.04 283.526 181.453 284.193 182.28C284.873 183.107 285.213 184.213 285.213 185.6C285.213 185.773 285.206 185.947 285.193 186.12C285.193 186.28 285.179 186.42 285.153 186.54H278.593C278.659 187.567 278.979 188.387 279.553 189C280.139 189.613 280.899 189.92 281.833 189.92C282.299 189.92 282.726 189.853 283.113 189.72C283.513 189.573 283.893 189.387 284.253 189.16L284.833 190.24C284.419 190.507 283.946 190.74 283.413 190.94C282.893 191.14 282.299 191.24 281.633 191.24ZM278.573 185.36H283.773C283.773 184.373 283.559 183.627 283.133 183.12C282.719 182.6 282.133 182.34 281.373 182.34C280.693 182.34 280.079 182.607 279.533 183.14C278.999 183.66 278.679 184.4 278.573 185.36ZM287.615 191V181.28H288.975L289.115 183.04H289.175C289.508 182.427 289.915 181.94 290.395 181.58C290.875 181.22 291.388 181.04 291.935 181.04C292.321 181.04 292.668 181.107 292.975 181.24L292.655 182.68C292.495 182.627 292.348 182.587 292.215 182.56C292.081 182.533 291.915 182.52 291.715 182.52C291.301 182.52 290.868 182.687 290.415 183.02C289.975 183.353 289.588 183.933 289.255 184.76V191H287.615ZM297.01 191.24C296.317 191.24 295.657 191.113 295.03 190.86C294.403 190.593 293.857 190.273 293.39 189.9L294.21 188.8C294.637 189.133 295.077 189.413 295.53 189.64C295.983 189.853 296.497 189.96 297.07 189.96C297.71 189.96 298.19 189.813 298.51 189.52C298.83 189.213 298.99 188.853 298.99 188.44C298.99 188.107 298.877 187.827 298.65 187.6C298.437 187.373 298.157 187.187 297.81 187.04C297.477 186.88 297.13 186.733 296.77 186.6C296.317 186.427 295.87 186.233 295.43 186.02C294.99 185.793 294.63 185.507 294.35 185.16C294.07 184.8 293.93 184.347 293.93 183.8C293.93 183.013 294.223 182.36 294.81 181.84C295.41 181.307 296.237 181.04 297.29 181.04C297.89 181.04 298.45 181.147 298.97 181.36C299.49 181.573 299.937 181.833 300.31 182.14L299.51 183.18C299.177 182.927 298.83 182.72 298.47 182.56C298.11 182.4 297.717 182.32 297.29 182.32C296.677 182.32 296.223 182.46 295.93 182.74C295.65 183.02 295.51 183.347 295.51 183.72C295.51 184.027 295.61 184.28 295.81 184.48C296.01 184.667 296.27 184.833 296.59 184.98C296.91 185.113 297.25 185.253 297.61 185.4C298.077 185.573 298.537 185.773 298.99 186C299.443 186.213 299.817 186.507 300.11 186.88C300.417 187.24 300.57 187.727 300.57 188.34C300.57 188.86 300.43 189.34 300.15 189.78C299.883 190.22 299.483 190.573 298.95 190.84C298.43 191.107 297.783 191.24 297.01 191.24Z" fill="white"/>
<path d="M897.824 156.48C895.771 156.48 894.038 156.133 892.624 155.44C891.238 154.72 890.078 153.893 889.144 152.96L891.264 150C892.038 150.72 892.904 151.36 893.864 151.92C894.824 152.453 895.944 152.72 897.224 152.72C898.638 152.72 899.811 152.293 900.744 151.44C901.678 150.587 902.144 149.387 902.144 147.84C902.144 146.32 901.718 145.147 900.864 144.32C900.011 143.493 898.878 143.08 897.464 143.08C896.638 143.08 895.944 143.2 895.384 143.44C894.824 143.653 894.158 144.013 893.384 144.52L891.184 143.12L891.944 130.56H905.544V134.44H895.944L895.424 140.6C895.958 140.333 896.478 140.133 896.984 140C897.518 139.84 898.118 139.76 898.784 139.76C900.251 139.76 901.584 140.04 902.784 140.6C903.984 141.16 904.944 142.027 905.664 143.2C906.411 144.373 906.784 145.88 906.784 147.72C906.784 149.56 906.358 151.133 905.504 152.44C904.678 153.747 903.584 154.747 902.224 155.44C900.864 156.133 899.398 156.48 897.824 156.48ZM918.132 156.48C915.492 156.48 913.386 155.333 911.812 153.04C910.266 150.747 909.492 147.453 909.492 143.16C909.492 138.867 910.266 135.613 911.812 133.4C913.386 131.187 915.492 130.08 918.132 130.08C920.772 130.08 922.866 131.187 924.412 133.4C925.986 135.613 926.772 138.867 926.772 143.16C926.772 147.453 925.986 150.747 924.412 153.04C922.866 155.333 920.772 156.48 918.132 156.48ZM918.132 152.88C918.959 152.88 919.692 152.573 920.332 151.96C920.972 151.32 921.466 150.293 921.812 148.88C922.186 147.467 922.372 145.56 922.372 143.16C922.372 140.76 922.186 138.867 921.812 137.48C921.466 136.093 920.972 135.12 920.332 134.56C919.692 133.973 918.959 133.68 918.132 133.68C917.332 133.68 916.612 133.973 915.972 134.56C915.332 135.12 914.826 136.093 914.452 137.48C914.079 138.867 913.892 140.76 913.892 143.16C913.892 145.56 914.079 147.467 914.452 148.88C914.826 150.293 915.332 151.32 915.972 151.96C916.612 152.573 917.332 152.88 918.132 152.88ZM937.84 156.48C935.2 156.48 933.093 155.333 931.52 153.04C929.973 150.747 929.2 147.453 929.2 143.16C929.2 138.867 929.973 135.613 931.52 133.4C933.093 131.187 935.2 130.08 937.84 130.08C940.48 130.08 942.573 131.187 944.12 133.4C945.693 135.613 946.48 138.867 946.48 143.16C946.48 147.453 945.693 150.747 944.12 153.04C942.573 155.333 940.48 156.48 937.84 156.48ZM937.84 152.88C938.667 152.88 939.4 152.573 940.04 151.96C940.68 151.32 941.173 150.293 941.52 148.88C941.893 147.467 942.08 145.56 942.08 143.16C942.08 140.76 941.893 138.867 941.52 137.48C941.173 136.093 940.68 135.12 940.04 134.56C939.4 133.973 938.667 133.68 937.84 133.68C937.04 133.68 936.32 133.973 935.68 134.56C935.04 135.12 934.533 136.093 934.16 137.48C933.787 138.867 933.6 140.76 933.6 143.16C933.6 145.56 933.787 147.467 934.16 148.88C934.533 150.293 935.04 151.32 935.68 151.96C936.32 152.573 937.04 152.88 937.84 152.88ZM955.828 152.04V144.48H948.668V141.12H955.828V133.56H959.308V141.12H966.468V144.48H959.308V152.04H955.828Z" fill="white"/>
<path d="M878.862 191.24C877.768 191.24 876.788 190.973 875.922 190.44C875.068 189.893 874.388 189.113 873.882 188.1C873.388 187.087 873.142 185.867 873.142 184.44C873.142 183.027 873.395 181.813 873.902 180.8C874.408 179.787 875.102 179.007 875.982 178.46C876.862 177.913 877.855 177.64 878.962 177.64C879.762 177.64 880.468 177.807 881.082 178.14C881.695 178.46 882.188 178.833 882.562 179.26L881.662 180.34C881.315 179.967 880.922 179.667 880.482 179.44C880.042 179.213 879.542 179.1 878.982 179.1C878.155 179.1 877.428 179.32 876.802 179.76C876.188 180.187 875.708 180.793 875.362 181.58C875.028 182.367 874.862 183.307 874.862 184.4C874.862 185.493 875.028 186.447 875.362 187.26C875.695 188.06 876.162 188.68 876.762 189.12C877.375 189.56 878.095 189.78 878.922 189.78C879.548 189.78 880.108 189.647 880.602 189.38C881.095 189.113 881.548 188.753 881.962 188.3L882.882 189.34C882.362 189.94 881.775 190.407 881.122 190.74C880.468 191.073 879.715 191.24 878.862 191.24ZM885.167 191V181.28H886.527L886.667 183.04H886.727C887.061 182.427 887.467 181.94 887.947 181.58C888.427 181.22 888.941 181.04 889.487 181.04C889.874 181.04 890.221 181.107 890.527 181.24L890.207 182.68C890.047 182.627 889.901 182.587 889.767 182.56C889.634 182.533 889.467 182.52 889.267 182.52C888.854 182.52 888.421 182.687 887.967 183.02C887.527 183.353 887.141 183.933 886.807 184.76V191H885.167ZM892.769 195.18C892.555 195.18 892.349 195.16 892.149 195.12C891.962 195.08 891.789 195.033 891.629 194.98L891.949 193.68C892.055 193.707 892.175 193.733 892.309 193.76C892.442 193.8 892.569 193.82 892.689 193.82C893.235 193.82 893.689 193.62 894.049 193.22C894.409 192.833 894.689 192.34 894.889 191.74L895.109 191.02L891.209 181.28H892.909L894.889 186.66C895.035 187.073 895.189 187.52 895.349 188C895.522 188.48 895.682 188.947 895.829 189.4H895.909C896.055 188.96 896.195 188.5 896.329 188.02C896.462 187.54 896.595 187.087 896.729 186.66L898.469 181.28H900.069L896.409 191.8C896.182 192.44 895.909 193.013 895.589 193.52C895.282 194.027 894.895 194.427 894.429 194.72C893.975 195.027 893.422 195.18 892.769 195.18ZM901.945 195.1V181.28H903.305L903.445 182.4H903.505C903.945 182.027 904.425 181.707 904.945 181.44C905.478 181.173 906.031 181.04 906.605 181.04C907.858 181.04 908.811 181.493 909.465 182.4C910.118 183.293 910.445 184.493 910.445 186C910.445 187.093 910.245 188.033 909.845 188.82C909.458 189.607 908.945 190.207 908.305 190.62C907.678 191.033 906.991 191.24 906.245 191.24C905.791 191.24 905.338 191.14 904.885 190.94C904.445 190.74 903.998 190.467 903.545 190.12L903.585 191.82V195.1H901.945ZM905.965 189.86C906.765 189.86 907.425 189.52 907.945 188.84C908.478 188.147 908.745 187.2 908.745 186C908.745 184.933 908.545 184.073 908.145 183.42C907.758 182.753 907.105 182.42 906.185 182.42C905.771 182.42 905.351 182.533 904.925 182.76C904.511 182.987 904.065 183.313 903.585 183.74V188.84C904.025 189.213 904.451 189.48 904.865 189.64C905.278 189.787 905.645 189.86 905.965 189.86ZM915.766 191.24C914.726 191.24 914 190.94 913.586 190.34C913.186 189.74 912.986 188.96 912.986 188V182.62H911.546V181.38L913.066 181.28L913.266 178.56H914.646V181.28H917.266V182.62H914.646V188.02C914.646 188.62 914.753 189.087 914.966 189.42C915.193 189.74 915.586 189.9 916.146 189.9C916.32 189.9 916.506 189.873 916.706 189.82C916.906 189.753 917.086 189.693 917.246 189.64L917.566 190.88C917.3 190.973 917.006 191.053 916.686 191.12C916.38 191.2 916.073 191.24 915.766 191.24ZM922.971 191.24C922.184 191.24 921.444 191.04 920.751 190.64C920.071 190.24 919.517 189.66 919.091 188.9C918.677 188.14 918.471 187.227 918.471 186.16C918.471 185.067 918.677 184.14 919.091 183.38C919.517 182.62 920.071 182.04 920.751 181.64C921.444 181.24 922.184 181.04 922.971 181.04C923.771 181.04 924.511 181.24 925.191 181.64C925.871 182.04 926.417 182.62 926.831 183.38C927.257 184.14 927.471 185.067 927.471 186.16C927.471 187.227 927.257 188.14 926.831 188.9C926.417 189.66 925.871 190.24 925.191 190.64C924.511 191.04 923.771 191.24 922.971 191.24ZM922.971 189.88C923.811 189.88 924.484 189.54 924.991 188.86C925.511 188.167 925.771 187.267 925.771 186.16C925.771 185.04 925.511 184.133 924.991 183.44C924.484 182.747 923.811 182.4 922.971 182.4C922.144 182.4 921.471 182.747 920.951 183.44C920.431 184.133 920.171 185.04 920.171 186.16C920.171 187.267 920.431 188.167 920.951 188.86C921.471 189.54 922.144 189.88 922.971 189.88ZM936.275 191.24C935.461 191.24 934.781 191 934.235 190.52C933.701 190.027 933.435 189.347 933.435 188.48C933.435 187.413 933.908 186.6 934.855 186.04C935.815 185.467 937.328 185.067 939.395 184.84C939.395 184.427 939.335 184.033 939.215 183.66C939.108 183.287 938.908 182.987 938.615 182.76C938.335 182.52 937.928 182.4 937.395 182.4C936.835 182.4 936.308 182.507 935.815 182.72C935.321 182.933 934.881 183.173 934.495 183.44L933.855 182.3C934.308 182.007 934.861 181.727 935.515 181.46C936.181 181.18 936.901 181.04 937.675 181.04C938.861 181.04 939.721 181.407 940.255 182.14C940.788 182.86 941.055 183.827 941.055 185.04V191H939.695L939.555 189.84H939.495C939.041 190.213 938.541 190.54 937.995 190.82C937.461 191.1 936.888 191.24 936.275 191.24ZM936.755 189.92C937.221 189.92 937.661 189.807 938.075 189.58C938.488 189.353 938.928 189.033 939.395 188.62V185.92C937.781 186.12 936.648 186.42 935.995 186.82C935.355 187.22 935.035 187.733 935.035 188.36C935.035 188.907 935.201 189.307 935.535 189.56C935.868 189.8 936.275 189.92 936.755 189.92ZM946.653 191.24C945.959 191.24 945.299 191.113 944.673 190.86C944.046 190.593 943.499 190.273 943.033 189.9L943.853 188.8C944.279 189.133 944.719 189.413 945.173 189.64C945.626 189.853 946.139 189.96 946.713 189.96C947.353 189.96 947.833 189.813 948.153 189.52C948.473 189.213 948.633 188.853 948.633 188.44C948.633 188.107 948.519 187.827 948.293 187.6C948.079 187.373 947.799 187.187 947.453 187.04C947.119 186.88 946.773 186.733 946.413 186.6C945.959 186.427 945.513 186.233 945.073 186.02C944.633 185.793 944.273 185.507 943.993 185.16C943.713 184.8 943.573 184.347 943.573 183.8C943.573 183.013 943.866 182.36 944.453 181.84C945.053 181.307 945.879 181.04 946.933 181.04C947.533 181.04 948.093 181.147 948.613 181.36C949.133 181.573 949.579 181.833 949.953 182.14L949.153 183.18C948.819 182.927 948.473 182.72 948.113 182.56C947.753 182.4 947.359 182.32 946.933 182.32C946.319 182.32 945.866 182.46 945.573 182.74C945.293 183.02 945.153 183.347 945.153 183.72C945.153 184.027 945.253 184.28 945.453 184.48C945.653 184.667 945.913 184.833 946.233 184.98C946.553 185.113 946.893 185.253 947.253 185.4C947.719 185.573 948.179 185.773 948.633 186C949.086 186.213 949.459 186.507 949.753 186.88C950.059 187.24 950.213 187.727 950.213 188.34C950.213 188.86 950.073 189.34 949.793 189.78C949.526 190.22 949.126 190.573 948.593 190.84C948.073 191.107 947.426 191.24 946.653 191.24ZM955.032 191.24C954.338 191.24 953.678 191.113 953.052 190.86C952.425 190.593 951.878 190.273 951.412 189.9L952.232 188.8C952.658 189.133 953.098 189.413 953.552 189.64C954.005 189.853 954.518 189.96 955.092 189.96C955.732 189.96 956.212 189.813 956.532 189.52C956.852 189.213 957.012 188.853 957.012 188.44C957.012 188.107 956.898 187.827 956.672 187.6C956.458 187.373 956.178 187.187 955.832 187.04C955.498 186.88 955.152 186.733 954.792 186.6C954.338 186.427 953.892 186.233 953.452 186.02C953.012 185.793 952.652 185.507 952.372 185.16C952.092 184.8 951.952 184.347 951.952 183.8C951.952 183.013 952.245 182.36 952.832 181.84C953.432 181.307 954.258 181.04 955.312 181.04C955.912 181.04 956.472 181.147 956.992 181.36C957.512 181.573 957.958 181.833 958.332 182.14L957.532 183.18C957.198 182.927 956.852 182.72 956.492 182.56C956.132 182.4 955.738 182.32 955.312 182.32C954.698 182.32 954.245 182.46 953.952 182.74C953.672 183.02 953.532 183.347 953.532 183.72C953.532 184.027 953.632 184.28 953.832 184.48C954.032 184.667 954.292 184.833 954.612 184.98C954.932 185.113 955.272 185.253 955.632 185.4C956.098 185.573 956.558 185.773 957.012 186C957.465 186.213 957.838 186.507 958.132 186.88C958.438 187.24 958.592 187.727 958.592 188.34C958.592 188.86 958.452 189.34 958.172 189.78C957.905 190.22 957.505 190.573 956.972 190.84C956.452 191.107 955.805 191.24 955.032 191.24ZM964.81 191.24C963.944 191.24 963.157 191.04 962.45 190.64C961.744 190.227 961.184 189.64 960.77 188.88C960.357 188.12 960.15 187.213 960.15 186.16C960.15 185.093 960.357 184.18 960.77 183.42C961.197 182.66 961.744 182.073 962.41 181.66C963.077 181.247 963.777 181.04 964.51 181.04C965.75 181.04 966.704 181.453 967.37 182.28C968.05 183.107 968.39 184.213 968.39 185.6C968.39 185.773 968.384 185.947 968.37 186.12C968.37 186.28 968.357 186.42 968.33 186.54H961.77C961.837 187.567 962.157 188.387 962.73 189C963.317 189.613 964.077 189.92 965.01 189.92C965.477 189.92 965.904 189.853 966.29 189.72C966.69 189.573 967.07 189.387 967.43 189.16L968.01 190.24C967.597 190.507 967.124 190.74 966.59 190.94C966.07 191.14 965.477 191.24 964.81 191.24ZM961.75 185.36H966.95C966.95 184.373 966.737 183.627 966.31 183.12C965.897 182.6 965.31 182.34 964.55 182.34C963.87 182.34 963.257 182.607 962.71 183.14C962.177 183.66 961.857 184.4 961.75 185.36ZM973.657 191.24C972.617 191.24 971.89 190.94 971.477 190.34C971.077 189.74 970.877 188.96 970.877 188V182.62H969.437V181.38L970.957 181.28L971.157 178.56H972.537V181.28H975.157V182.62H972.537V188.02C972.537 188.62 972.644 189.087 972.857 189.42C973.084 189.74 973.477 189.9 974.037 189.9C974.21 189.9 974.397 189.873 974.597 189.82C974.797 189.753 974.977 189.693 975.137 189.64L975.457 190.88C975.19 190.973 974.897 191.053 974.577 191.12C974.27 191.2 973.964 191.24 973.657 191.24ZM979.7 191.24C979.006 191.24 978.346 191.113 977.72 190.86C977.093 190.593 976.546 190.273 976.08 189.9L976.9 188.8C977.326 189.133 977.766 189.413 978.22 189.64C978.673 189.853 979.186 189.96 979.76 189.96C980.4 189.96 980.88 189.813 981.2 189.52C981.52 189.213 981.68 188.853 981.68 188.44C981.68 188.107 981.566 187.827 981.34 187.6C981.126 187.373 980.846 187.187 980.5 187.04C980.166 186.88 979.82 186.733 979.46 186.6C979.006 186.427 978.56 186.233 978.12 186.02C977.68 185.793 977.32 185.507 977.04 185.16C976.76 184.8 976.62 184.347 976.62 183.8C976.62 183.013 976.913 182.36 977.5 181.84C978.1 181.307 978.926 181.04 979.98 181.04C980.58 181.04 981.14 181.147 981.66 181.36C982.18 181.573 982.626 181.833 983 182.14L982.2 183.18C981.866 182.927 981.52 182.72 981.16 182.56C980.8 182.4 980.406 182.32 979.98 182.32C979.366 182.32 978.913 182.46 978.62 182.74C978.34 183.02 978.2 183.347 978.2 183.72C978.2 184.027 978.3 184.28 978.5 184.48C978.7 184.667 978.96 184.833 979.28 184.98C979.6 185.113 979.94 185.253 980.3 185.4C980.766 185.573 981.226 185.773 981.68 186C982.133 186.213 982.506 186.507 982.8 186.88C983.106 187.24 983.26 187.727 983.26 188.34C983.26 188.86 983.12 189.34 982.84 189.78C982.573 190.22 982.173 190.573 981.64 190.84C981.12 191.107 980.473 191.24 979.7 191.24Z" fill="white"/>
<path d="M496.54 156V152.24H502.22V135.52H497.54V132.64C498.794 132.4 499.887 132.12 500.82 131.8C501.754 131.453 502.62 131.04 503.42 130.56H506.86V152.24H511.86V156H496.54ZM524.008 143.6C523.288 143.6 522.528 143.827 521.728 144.28C520.928 144.707 520.168 145.453 519.448 146.52C519.688 148.787 520.235 150.427 521.088 151.44C521.942 152.453 522.982 152.96 524.208 152.96C525.275 152.96 526.168 152.547 526.888 151.72C527.635 150.867 528.008 149.667 528.008 148.12C528.008 146.627 527.648 145.507 526.928 144.76C526.235 143.987 525.262 143.6 524.008 143.6ZM524.288 156.48C522.635 156.48 521.102 156.04 519.688 155.16C518.275 154.28 517.142 152.92 516.288 151.08C515.462 149.24 515.048 146.893 515.048 144.04C515.048 140.733 515.515 138.067 516.448 136.04C517.408 133.987 518.648 132.48 520.168 131.52C521.688 130.56 523.315 130.08 525.048 130.08C526.595 130.08 527.928 130.36 529.048 130.92C530.168 131.48 531.102 132.16 531.848 132.96L529.368 135.76C528.915 135.2 528.315 134.747 527.568 134.4C526.848 134.027 526.102 133.84 525.328 133.84C524.262 133.84 523.288 134.133 522.408 134.72C521.528 135.307 520.808 136.293 520.248 137.68C519.715 139.04 519.408 140.893 519.328 143.24C520.075 142.307 520.955 141.573 521.968 141.04C522.982 140.507 523.942 140.24 524.848 140.24C527.062 140.24 528.848 140.893 530.208 142.2C531.595 143.48 532.288 145.453 532.288 148.12C532.288 149.8 531.915 151.267 531.168 152.52C530.448 153.773 529.488 154.747 528.288 155.44C527.088 156.133 525.755 156.48 524.288 156.48ZM535.876 163.28L534.876 160.76C536.183 160.253 537.183 159.56 537.876 158.68C538.596 157.827 538.943 156.907 538.916 155.92C538.863 155.92 538.796 155.92 538.716 155.92C538.663 155.92 538.609 155.92 538.556 155.92C537.783 155.92 537.089 155.68 536.476 155.2C535.889 154.693 535.596 153.987 535.596 153.08C535.596 152.227 535.903 151.547 536.516 151.04C537.129 150.507 537.849 150.24 538.676 150.24C539.769 150.24 540.609 150.653 541.196 151.48C541.809 152.307 542.116 153.467 542.116 154.96C542.116 156.907 541.569 158.6 540.476 160.04C539.383 161.507 537.849 162.587 535.876 163.28ZM552.852 156.48C550.798 156.48 549.065 156.133 547.652 155.44C546.265 154.72 545.105 153.893 544.172 152.96L546.292 150C547.065 150.72 547.932 151.36 548.892 151.92C549.852 152.453 550.972 152.72 552.252 152.72C553.665 152.72 554.838 152.293 555.772 151.44C556.705 150.587 557.172 149.387 557.172 147.84C557.172 146.32 556.745 145.147 555.892 144.32C555.038 143.493 553.905 143.08 552.492 143.08C551.665 143.08 550.972 143.2 550.412 143.44C549.852 143.653 549.185 144.013 548.412 144.52L546.212 143.12L546.972 130.56H560.572V134.44H550.972L550.452 140.6C550.985 140.333 551.505 140.133 552.012 140C552.545 139.84 553.145 139.76 553.812 139.76C555.278 139.76 556.612 140.04 557.812 140.6C559.012 141.16 559.972 142.027 560.692 143.2C561.438 144.373 561.812 145.88 561.812 147.72C561.812 149.56 561.385 151.133 560.532 152.44C559.705 153.747 558.612 154.747 557.252 155.44C555.892 156.133 554.425 156.48 552.852 156.48ZM573.16 156.48C570.52 156.48 568.413 155.333 566.84 153.04C565.293 150.747 564.52 147.453 564.52 143.16C564.52 138.867 565.293 135.613 566.84 133.4C568.413 131.187 570.52 130.08 573.16 130.08C575.8 130.08 577.893 131.187 579.44 133.4C581.013 135.613 581.8 138.867 581.8 143.16C581.8 147.453 581.013 150.747 579.44 153.04C577.893 155.333 575.8 156.48 573.16 156.48ZM573.16 152.88C573.986 152.88 574.72 152.573 575.36 151.96C576 151.32 576.493 150.293 576.84 148.88C577.213 147.467 577.4 145.56 577.4 143.16C577.4 140.76 577.213 138.867 576.84 137.48C576.493 136.093 576 135.12 575.36 134.56C574.72 133.973 573.986 133.68 573.16 133.68C572.36 133.68 571.64 133.973 571 134.56C570.36 135.12 569.853 136.093 569.48 137.48C569.106 138.867 568.92 140.76 568.92 143.16C568.92 145.56 569.106 147.467 569.48 148.88C569.853 150.293 570.36 151.32 571 151.96C571.64 152.573 572.36 152.88 573.16 152.88ZM592.867 156.48C590.227 156.48 588.121 155.333 586.547 153.04C585.001 150.747 584.227 147.453 584.227 143.16C584.227 138.867 585.001 135.613 586.547 133.4C588.121 131.187 590.227 130.08 592.867 130.08C595.507 130.08 597.601 131.187 599.147 133.4C600.721 135.613 601.507 138.867 601.507 143.16C601.507 147.453 600.721 150.747 599.147 153.04C597.601 155.333 595.507 156.48 592.867 156.48ZM592.867 152.88C593.694 152.88 594.427 152.573 595.067 151.96C595.707 151.32 596.201 150.293 596.547 148.88C596.921 147.467 597.107 145.56 597.107 143.16C597.107 140.76 596.921 138.867 596.547 137.48C596.201 136.093 595.707 135.12 595.067 134.56C594.427 133.973 593.694 133.68 592.867 133.68C592.067 133.68 591.347 133.973 590.707 134.56C590.067 135.12 589.561 136.093 589.187 137.48C588.814 138.867 588.627 140.76 588.627 143.16C588.627 145.56 588.814 147.467 589.187 148.88C589.561 150.293 590.067 151.32 590.707 151.96C591.347 152.573 592.067 152.88 592.867 152.88ZM623.303 156.48C621.116 156.48 619.13 155.96 617.343 154.92C615.556 153.88 614.13 152.36 613.063 150.36C612.023 148.333 611.503 145.88 611.503 143C611.503 140.147 612.036 137.707 613.103 135.68C614.196 133.627 615.65 132.067 617.463 131C619.276 129.907 621.276 129.36 623.463 129.36C625.116 129.36 626.583 129.693 627.863 130.36C629.143 131.027 630.196 131.8 631.023 132.68L628.543 135.68C627.876 134.987 627.13 134.44 626.303 134.04C625.503 133.613 624.596 133.4 623.583 133.4C622.17 133.4 620.903 133.787 619.783 134.56C618.69 135.307 617.823 136.387 617.183 137.8C616.57 139.213 616.263 140.907 616.263 142.88C616.263 145.867 616.916 148.213 618.223 149.92C619.53 151.6 621.276 152.44 623.463 152.44C624.636 152.44 625.676 152.2 626.583 151.72C627.49 151.213 628.316 150.56 629.063 149.76L631.543 152.68C630.476 153.907 629.25 154.853 627.863 155.52C626.503 156.16 624.983 156.48 623.303 156.48ZM634.71 156V136.36H638.51L638.83 139.84H638.99C639.683 138.56 640.523 137.587 641.51 136.92C642.497 136.227 643.51 135.88 644.55 135.88C645.483 135.88 646.23 136.013 646.79 136.28L645.99 140.28C645.643 140.173 645.323 140.093 645.03 140.04C644.737 139.987 644.377 139.96 643.95 139.96C643.177 139.96 642.363 140.267 641.51 140.88C640.657 141.467 639.923 142.507 639.31 144V156H634.71ZM654.432 152.04V144.48H647.272V141.12H654.432V133.56H657.912V141.12H665.072V144.48H657.912V152.04H654.432Z" fill="white"/>
<path d="M481.718 189.86C482.505 189.86 483.185 189.64 483.758 189.2C484.345 188.747 484.798 188.113 485.118 187.3C485.438 186.473 485.598 185.5 485.598 184.38C485.598 182.753 485.245 181.467 484.538 180.52C483.831 179.573 482.891 179.1 481.718 179.1C480.545 179.1 479.605 179.573 478.898 180.52C478.191 181.467 477.838 182.753 477.838 184.38C477.838 185.5 477.998 186.473 478.318 187.3C478.638 188.113 479.091 188.747 479.678 189.2C480.265 189.64 480.945 189.86 481.718 189.86ZM485.738 194.3C484.525 194.3 483.511 194 482.698 193.4C481.885 192.813 481.285 192.073 480.898 191.18C479.951 191.047 479.118 190.687 478.398 190.1C477.678 189.513 477.118 188.733 476.718 187.76C476.318 186.787 476.118 185.66 476.118 184.38C476.118 182.98 476.351 181.78 476.818 180.78C477.298 179.767 477.958 178.993 478.798 178.46C479.651 177.913 480.625 177.64 481.718 177.64C482.825 177.64 483.798 177.913 484.638 178.46C485.478 178.993 486.138 179.767 486.618 180.78C487.098 181.78 487.338 182.98 487.338 184.38C487.338 185.633 487.145 186.74 486.758 187.7C486.371 188.66 485.831 189.44 485.138 190.04C484.445 190.627 483.631 191 482.698 191.16C483.005 191.733 483.438 192.167 483.998 192.46C484.571 192.753 485.211 192.9 485.918 192.9C486.211 192.9 486.471 192.88 486.698 192.84C486.925 192.813 487.125 192.773 487.298 192.72L487.618 194C487.418 194.08 487.151 194.147 486.818 194.2C486.485 194.267 486.125 194.3 485.738 194.3ZM492.839 191.24C491.813 191.24 491.059 190.92 490.579 190.28C490.099 189.627 489.859 188.68 489.859 187.44V181.28H491.519V187.22C491.519 188.127 491.659 188.787 491.939 189.2C492.233 189.613 492.699 189.82 493.339 189.82C493.846 189.82 494.293 189.693 494.679 189.44C495.079 189.173 495.506 188.753 495.959 188.18V181.28H497.599V191H496.239L496.099 189.48H496.039C495.586 190.013 495.106 190.44 494.599 190.76C494.093 191.08 493.506 191.24 492.839 191.24ZM503.118 191.24C502.305 191.24 501.625 191 501.078 190.52C500.545 190.027 500.278 189.347 500.278 188.48C500.278 187.413 500.752 186.6 501.698 186.04C502.658 185.467 504.172 185.067 506.238 184.84C506.238 184.427 506.178 184.033 506.058 183.66C505.952 183.287 505.752 182.987 505.458 182.76C505.178 182.52 504.772 182.4 504.238 182.4C503.678 182.4 503.152 182.507 502.658 182.72C502.165 182.933 501.725 183.173 501.338 183.44L500.698 182.3C501.152 182.007 501.705 181.727 502.358 181.46C503.025 181.18 503.745 181.04 504.518 181.04C505.705 181.04 506.565 181.407 507.098 182.14C507.632 182.86 507.898 183.827 507.898 185.04V191H506.538L506.398 189.84H506.338C505.885 190.213 505.385 190.54 504.838 190.82C504.305 191.1 503.732 191.24 503.118 191.24ZM503.598 189.92C504.065 189.92 504.505 189.807 504.918 189.58C505.332 189.353 505.772 189.033 506.238 188.62V185.92C504.625 186.12 503.492 186.42 502.838 186.82C502.198 187.22 501.878 187.733 501.878 188.36C501.878 188.907 502.045 189.307 502.378 189.56C502.712 189.8 503.118 189.92 503.598 189.92ZM510.956 191V181.28H512.316L512.456 183.04H512.516C512.85 182.427 513.256 181.94 513.736 181.58C514.216 181.22 514.73 181.04 515.276 181.04C515.663 181.04 516.01 181.107 516.316 181.24L515.996 182.68C515.836 182.627 515.69 182.587 515.556 182.56C515.423 182.533 515.256 182.52 515.056 182.52C514.643 182.52 514.21 182.687 513.756 183.02C513.316 183.353 512.93 183.933 512.596 184.76V191H510.956ZM520.95 191.24C519.91 191.24 519.183 190.94 518.77 190.34C518.37 189.74 518.17 188.96 518.17 188V182.62H516.73V181.38L518.25 181.28L518.45 178.56H519.83V181.28H522.45V182.62H519.83V188.02C519.83 188.62 519.937 189.087 520.15 189.42C520.377 189.74 520.77 189.9 521.33 189.9C521.503 189.9 521.69 189.873 521.89 189.82C522.09 189.753 522.27 189.693 522.43 189.64L522.75 190.88C522.483 190.973 522.19 191.053 521.87 191.12C521.563 191.2 521.257 191.24 520.95 191.24ZM528.314 191.24C527.448 191.24 526.661 191.04 525.954 190.64C525.248 190.227 524.688 189.64 524.274 188.88C523.861 188.12 523.654 187.213 523.654 186.16C523.654 185.093 523.861 184.18 524.274 183.42C524.701 182.66 525.248 182.073 525.914 181.66C526.581 181.247 527.281 181.04 528.014 181.04C529.254 181.04 530.208 181.453 530.874 182.28C531.554 183.107 531.894 184.213 531.894 185.6C531.894 185.773 531.888 185.947 531.874 186.12C531.874 186.28 531.861 186.42 531.834 186.54H525.274C525.341 187.567 525.661 188.387 526.234 189C526.821 189.613 527.581 189.92 528.514 189.92C528.981 189.92 529.408 189.853 529.794 189.72C530.194 189.573 530.574 189.387 530.934 189.16L531.514 190.24C531.101 190.507 530.628 190.74 530.094 190.94C529.574 191.14 528.981 191.24 528.314 191.24ZM525.254 185.36H530.454C530.454 184.373 530.241 183.627 529.814 183.12C529.401 182.6 528.814 182.34 528.054 182.34C527.374 182.34 526.761 182.607 526.214 183.14C525.681 183.66 525.361 184.4 525.254 185.36ZM534.296 191V181.28H535.656L535.796 183.04H535.856C536.19 182.427 536.596 181.94 537.076 181.58C537.556 181.22 538.07 181.04 538.616 181.04C539.003 181.04 539.35 181.107 539.656 181.24L539.336 182.68C539.176 182.627 539.03 182.587 538.896 182.56C538.763 182.533 538.596 182.52 538.396 182.52C537.983 182.52 537.55 182.687 537.096 183.02C536.656 183.353 536.27 183.933 535.936 184.76V191H534.296ZM542.97 191.24C542.357 191.24 541.91 191.053 541.63 190.68C541.363 190.293 541.23 189.747 541.23 189.04V176.76H542.87V189.16C542.87 189.413 542.917 189.6 543.01 189.72C543.103 189.827 543.21 189.88 543.33 189.88C543.383 189.88 543.43 189.88 543.47 189.88C543.523 189.867 543.597 189.853 543.69 189.84L543.91 191.08C543.803 191.133 543.677 191.173 543.53 191.2C543.383 191.227 543.197 191.24 542.97 191.24ZM546.488 195.18C546.274 195.18 546.068 195.16 545.868 195.12C545.681 195.08 545.508 195.033 545.347 194.98L545.668 193.68C545.774 193.707 545.894 193.733 546.028 193.76C546.161 193.8 546.288 193.82 546.408 193.82C546.954 193.82 547.408 193.62 547.768 193.22C548.128 192.833 548.408 192.34 548.608 191.74L548.828 191.02L544.928 181.28H546.628L548.608 186.66C548.754 187.073 548.908 187.52 549.068 188C549.241 188.48 549.401 188.947 549.548 189.4H549.628C549.774 188.96 549.914 188.5 550.048 188.02C550.181 187.54 550.314 187.087 550.448 186.66L552.188 181.28H553.788L550.128 191.8C549.901 192.44 549.628 193.013 549.308 193.52C549.001 194.027 548.614 194.427 548.148 194.72C547.694 195.027 547.141 195.18 546.488 195.18ZM562.727 191.24C561.687 191.24 560.961 190.94 560.547 190.34C560.147 189.74 559.947 188.96 559.947 188V182.62H558.507V181.38L560.027 181.28L560.227 178.56H561.607V181.28H564.227V182.62H561.607V188.02C561.607 188.62 561.714 189.087 561.927 189.42C562.154 189.74 562.547 189.9 563.107 189.9C563.281 189.9 563.467 189.873 563.667 189.82C563.867 189.753 564.047 189.693 564.207 189.64L564.527 190.88C564.261 190.973 563.967 191.053 563.647 191.12C563.341 191.2 563.034 191.24 562.727 191.24ZM566.425 191V181.28H567.785L567.925 183.04H567.985C568.318 182.427 568.725 181.94 569.205 181.58C569.685 181.22 570.198 181.04 570.745 181.04C571.132 181.04 571.478 181.107 571.785 181.24L571.465 182.68C571.305 182.627 571.158 182.587 571.025 182.56C570.892 182.533 570.725 182.52 570.525 182.52C570.112 182.52 569.678 182.687 569.225 183.02C568.785 183.353 568.398 183.933 568.065 184.76V191H566.425ZM575.11 191.24C574.297 191.24 573.617 191 573.07 190.52C572.537 190.027 572.27 189.347 572.27 188.48C572.27 187.413 572.744 186.6 573.69 186.04C574.65 185.467 576.164 185.067 578.23 184.84C578.23 184.427 578.17 184.033 578.05 183.66C577.944 183.287 577.744 182.987 577.45 182.76C577.17 182.52 576.764 182.4 576.23 182.4C575.67 182.4 575.144 182.507 574.65 182.72C574.157 182.933 573.717 183.173 573.33 183.44L572.69 182.3C573.144 182.007 573.697 181.727 574.35 181.46C575.017 181.18 575.737 181.04 576.51 181.04C577.697 181.04 578.557 181.407 579.09 182.14C579.624 182.86 579.89 183.827 579.89 185.04V191H578.53L578.39 189.84H578.33C577.877 190.213 577.377 190.54 576.83 190.82C576.297 191.1 575.724 191.24 575.11 191.24ZM575.59 189.92C576.057 189.92 576.497 189.807 576.91 189.58C577.324 189.353 577.764 189.033 578.23 188.62V185.92C576.617 186.12 575.484 186.42 574.83 186.82C574.19 187.22 573.87 187.733 573.87 188.36C573.87 188.907 574.037 189.307 574.37 189.56C574.704 189.8 575.11 189.92 575.59 189.92ZM586.269 191.24C585.055 191.24 584.082 190.8 583.349 189.92C582.615 189.027 582.249 187.773 582.249 186.16C582.249 185.107 582.442 184.2 582.829 183.44C583.229 182.667 583.749 182.073 584.389 181.66C585.042 181.247 585.735 181.04 586.469 181.04C587.029 181.04 587.515 181.14 587.929 181.34C588.342 181.54 588.762 181.813 589.189 182.16L589.109 180.5V176.76H590.769V191H589.409L589.269 189.86H589.209C588.835 190.233 588.395 190.56 587.889 190.84C587.382 191.107 586.842 191.24 586.269 191.24ZM586.629 189.86C587.482 189.86 588.309 189.413 589.109 188.52V183.44C588.695 183.067 588.295 182.807 587.909 182.66C587.535 182.5 587.149 182.42 586.749 182.42C586.229 182.42 585.755 182.58 585.329 182.9C584.915 183.207 584.582 183.64 584.329 184.2C584.075 184.747 583.949 185.393 583.949 186.14C583.949 187.3 584.182 188.213 584.649 188.88C585.115 189.533 585.775 189.86 586.629 189.86ZM594.042 191V181.28H595.682V191H594.042ZM594.882 179.28C594.562 179.28 594.296 179.187 594.082 179C593.882 178.8 593.782 178.533 593.782 178.2C593.782 177.88 593.882 177.62 594.082 177.42C594.296 177.22 594.562 177.12 594.882 177.12C595.202 177.12 595.462 177.22 595.662 177.42C595.876 177.62 595.982 177.88 595.982 178.2C595.982 178.533 595.876 178.8 595.662 179C595.462 179.187 595.202 179.28 594.882 179.28ZM598.964 191V181.28H600.324L600.464 182.68H600.524C600.991 182.213 601.484 181.827 602.004 181.52C602.524 181.2 603.118 181.04 603.784 181.04C604.811 181.04 605.558 181.367 606.024 182.02C606.504 182.66 606.744 183.6 606.744 184.84V191H605.104V185.06C605.104 184.153 604.958 183.493 604.664 183.08C604.371 182.667 603.904 182.46 603.264 182.46C602.771 182.46 602.324 182.587 601.924 182.84C601.538 183.093 601.098 183.467 600.604 183.96V191H598.964ZM613.182 195.48C611.995 195.48 611.028 195.253 610.282 194.8C609.535 194.347 609.162 193.7 609.162 192.86C609.162 192.447 609.288 192.047 609.542 191.66C609.795 191.287 610.142 190.953 610.582 190.66V190.58C610.342 190.433 610.135 190.227 609.962 189.96C609.802 189.693 609.722 189.373 609.722 189C609.722 188.587 609.835 188.227 610.062 187.92C610.288 187.613 610.528 187.373 610.782 187.2V187.12C610.462 186.853 610.168 186.493 609.902 186.04C609.648 185.587 609.522 185.073 609.522 184.5C609.522 183.793 609.688 183.18 610.022 182.66C610.355 182.14 610.802 181.74 611.362 181.46C611.922 181.18 612.528 181.04 613.182 181.04C613.448 181.04 613.702 181.067 613.942 181.12C614.182 181.16 614.388 181.213 614.562 181.28H617.942V182.54H615.942C616.168 182.753 616.355 183.04 616.502 183.4C616.662 183.747 616.742 184.127 616.742 184.54C616.742 185.233 616.582 185.833 616.262 186.34C615.942 186.847 615.515 187.24 614.982 187.52C614.448 187.787 613.848 187.92 613.182 187.92C612.662 187.92 612.175 187.807 611.722 187.58C611.548 187.727 611.402 187.893 611.282 188.08C611.162 188.253 611.102 188.473 611.102 188.74C611.102 189.047 611.222 189.3 611.462 189.5C611.715 189.7 612.168 189.8 612.822 189.8H614.702C615.835 189.8 616.682 189.987 617.242 190.36C617.815 190.72 618.102 191.307 618.102 192.12C618.102 192.72 617.902 193.273 617.502 193.78C617.102 194.287 616.535 194.693 615.802 195C615.068 195.32 614.195 195.48 613.182 195.48ZM613.182 186.82C613.742 186.82 614.222 186.613 614.622 186.2C615.035 185.773 615.242 185.207 615.242 184.5C615.242 183.793 615.042 183.24 614.642 182.84C614.242 182.44 613.755 182.24 613.182 182.24C612.608 182.24 612.122 182.44 611.722 182.84C611.322 183.24 611.122 183.793 611.122 184.5C611.122 185.207 611.322 185.773 611.722 186.2C612.135 186.613 612.622 186.82 613.182 186.82ZM613.422 194.34C614.355 194.34 615.102 194.133 615.662 193.72C616.222 193.32 616.502 192.867 616.502 192.36C616.502 191.907 616.328 191.593 615.982 191.42C615.648 191.247 615.168 191.16 614.542 191.16H612.862C612.675 191.16 612.468 191.147 612.242 191.12C612.028 191.093 611.815 191.053 611.602 191C611.255 191.253 611.002 191.52 610.842 191.8C610.682 192.08 610.602 192.36 610.602 192.64C610.602 193.16 610.848 193.573 611.342 193.88C611.848 194.187 612.542 194.34 613.422 194.34ZM626.084 191L622.584 181.28H624.284L626.124 186.8C626.27 187.28 626.417 187.76 626.564 188.24C626.724 188.72 626.877 189.193 627.024 189.66H627.104C627.25 189.193 627.397 188.72 627.544 188.24C627.704 187.76 627.85 187.28 627.984 186.8L629.824 181.28H631.444L628.004 191H626.084ZM637.022 191.24C636.235 191.24 635.495 191.04 634.802 190.64C634.122 190.24 633.568 189.66 633.142 188.9C632.728 188.14 632.522 187.227 632.522 186.16C632.522 185.067 632.728 184.14 633.142 183.38C633.568 182.62 634.122 182.04 634.802 181.64C635.495 181.24 636.235 181.04 637.022 181.04C637.822 181.04 638.562 181.24 639.242 181.64C639.922 182.04 640.468 182.62 640.882 183.38C641.308 184.14 641.522 185.067 641.522 186.16C641.522 187.227 641.308 188.14 640.882 188.9C640.468 189.66 639.922 190.24 639.242 190.64C638.562 191.04 637.822 191.24 637.022 191.24ZM637.022 189.88C637.862 189.88 638.535 189.54 639.042 188.86C639.562 188.167 639.822 187.267 639.822 186.16C639.822 185.04 639.562 184.133 639.042 183.44C638.535 182.747 637.862 182.4 637.022 182.4C636.195 182.4 635.522 182.747 635.002 183.44C634.482 184.133 634.222 185.04 634.222 186.16C634.222 187.267 634.482 188.167 635.002 188.86C635.522 189.54 636.195 189.88 637.022 189.88ZM645.821 191.24C645.208 191.24 644.761 191.053 644.481 190.68C644.215 190.293 644.081 189.747 644.081 189.04V176.76H645.721V189.16C645.721 189.413 645.768 189.6 645.861 189.72C645.955 189.827 646.061 189.88 646.181 189.88C646.235 189.88 646.281 189.88 646.321 189.88C646.375 189.867 646.448 189.853 646.541 189.84L646.761 191.08C646.655 191.133 646.528 191.173 646.381 191.2C646.235 191.227 646.048 191.24 645.821 191.24ZM652.019 191.24C650.992 191.24 650.239 190.92 649.759 190.28C649.279 189.627 649.039 188.68 649.039 187.44V181.28H650.699V187.22C650.699 188.127 650.839 188.787 651.119 189.2C651.412 189.613 651.879 189.82 652.519 189.82C653.026 189.82 653.472 189.693 653.859 189.44C654.259 189.173 654.686 188.753 655.139 188.18V181.28H656.779V191H655.419L655.279 189.48H655.219C654.766 190.013 654.286 190.44 653.779 190.76C653.272 191.08 652.686 191.24 652.019 191.24ZM660.058 191V181.28H661.418L661.558 182.68H661.618C662.045 182.213 662.511 181.827 663.018 181.52C663.525 181.2 664.065 181.04 664.638 181.04C665.385 181.04 665.965 181.207 666.378 181.54C666.805 181.86 667.118 182.313 667.318 182.9C667.825 182.353 668.338 181.907 668.858 181.56C669.378 181.213 669.931 181.04 670.518 181.04C671.518 181.04 672.258 181.367 672.738 182.02C673.231 182.66 673.478 183.6 673.478 184.84V191H671.838V185.06C671.838 184.153 671.691 183.493 671.398 183.08C671.105 182.667 670.651 182.46 670.038 182.46C669.318 182.46 668.505 182.96 667.598 183.96V191H665.958V185.06C665.958 184.153 665.811 183.493 665.518 183.08C665.225 182.667 664.765 182.46 664.138 182.46C663.418 182.46 662.605 182.96 661.698 183.96V191H660.058ZM680.58 191.24C679.713 191.24 678.927 191.04 678.22 190.64C677.513 190.227 676.953 189.64 676.54 188.88C676.127 188.12 675.92 187.213 675.92 186.16C675.92 185.093 676.127 184.18 676.54 183.42C676.967 182.66 677.513 182.073 678.18 181.66C678.847 181.247 679.547 181.04 680.28 181.04C681.52 181.04 682.473 181.453 683.14 182.28C683.82 183.107 684.16 184.213 684.16 185.6C684.16 185.773 684.153 185.947 684.14 186.12C684.14 186.28 684.127 186.42 684.1 186.54H677.54C677.607 187.567 677.927 188.387 678.5 189C679.087 189.613 679.847 189.92 680.78 189.92C681.247 189.92 681.673 189.853 682.06 189.72C682.46 189.573 682.84 189.387 683.2 189.16L683.78 190.24C683.367 190.507 682.893 190.74 682.36 190.94C681.84 191.14 681.247 191.24 680.58 191.24ZM677.52 185.36H682.72C682.72 184.373 682.507 183.627 682.08 183.12C681.667 182.6 681.08 182.34 680.32 182.34C679.64 182.34 679.027 182.607 678.48 183.14C677.947 183.66 677.627 184.4 677.52 185.36Z" fill="white"/>
<defs>
<filter id="filter0_d_2181_27244" x="0" y="0" width="1160" height="256" filterUnits="userSpaceOnUse" color-interpolation-filters="sRGB">
<feFlood flood-opacity="0" result="BackgroundImageFix"/>
<feColorMatrix in="SourceAlpha" type="matrix" values="0 0 0 0 0 0 0 0 0 0 0 0 0 0 0 0 0 0 127 0" result="hardAlpha"/>
<feOffset dy="4"/>
<feGaussianBlur stdDeviation="10"/>
<feColorMatrix type="matrix" values="0 0 0 0 0.337255 0 0 0 0 0.486275 0 0 0 0 0.678431 0 0 0 0.2 0"/>
<feBlend mode="normal" in2="BackgroundImageFix" result="effect1_dropShadow_2181_27244"/>
<feBlend mode="normal" in="SourceGraphic" in2="effect1_dropShadow_2181_27244" result="shape"/>
</filter>
<filter id="filter1_bi_2181_27244" x="14.2301" y="44.4801" width="1131.54" height="193.29" filterUnits="userSpaceOnUse" color-interpolation-filters="sRGB">
<feFlood flood-opacity="0" result="BackgroundImageFix"/>
<feGaussianBlur in="BackgroundImageFix" stdDeviation="2.88495"/>
<feComposite in2="SourceAlpha" operator="in" result="effect1_backgroundBlur_2181_27244"/>
<feBlend mode="normal" in="SourceGraphic" in2="effect1_backgroundBlur_2181_27244" result="shape"/>
<feColorMatrix in="SourceAlpha" type="matrix" values="0 0 0 0 0 0 0 0 0 0 0 0 0 0 0 0 0 0 127 0" result="hardAlpha"/>
<feOffset/>
<feGaussianBlur stdDeviation="2.66303"/>
<feComposite in2="hardAlpha" operator="arithmetic" k2="-1" k3="1"/>
<feColorMatrix type="matrix" values="0 0 0 0 0.980392 0 0 0 0 0.290196 0 0 0 0 0.160784 0 0 0 0.1 0"/>
<feBlend mode="normal" in2="shape" result="effect2_innerShadow_2181_27244"/>
</filter>
<radialGradient id="paint0_radial_2181_27244" cx="0" cy="0" r="1" gradientUnits="userSpaceOnUse" gradientTransform="translate(580 124) rotate(90) scale(213.207 490)">
<stop stop-color="#1C2951"/>
<stop offset="1" stop-color="#111B37"/>
</radialGradient>
<linearGradient id="paint1_linear_2181_27244" x1="580" y1="-11" x2="580.153" y2="264" gradientUnits="userSpaceOnUse">
<stop offset="0.341818" stop-color="#FDDED9" stop-opacity="0.7"/>
<stop offset="1" stop-color="#FFEEEB" stop-opacity="0.1"/>
</linearGradient>
<linearGradient id="paint2_linear_2181_27244" x1="1140" y1="125" x2="20" y2="125" gradientUnits="userSpaceOnUse">
<stop stop-color="#FA4A29" stop-opacity="0.1"/>
<stop offset="0.189286" stop-color="#FA4A29"/>
<stop offset="0.8125" stop-color="#FA4A29"/>
<stop offset="1" stop-color="#FA4A29" stop-opacity="0.1"/>
</linearGradient>
</defs>
</svg>
